<svg xmlns="http://www.w3.org/2000/svg" width="408" height="458" fill="none"><g filter="url(#a)"><path fill="#4D79FF" d="m404 .81-130.88 260.1c-19.3-36.13-33.8-60.4-49.4-96.4-4.97-23.1 16.02-57.02 30.76-86.58 14.3-24.42 24.7-52.7 32.5-64.27C302.58-9.47 352 4.66 404 .81Z"/></g><g filter="url(#b)"><path fill="#004EE2" d="M197.3 436.1c-15.38 23.28-66.04 9.26-118 13.59 0 0 18.76-36.75 41.7-84.66l.45-.95c31.15-65.06 72.29-150.96 56.66-201.01-7.25-23.2-18.1-60.25-18.1-60.25l-27.4-58c19.63 35.96 107.13 203.22 123.07 239.07 5.18 23.07-12.02 57.95-26.48 87.65-14.07 24.55-24.2 52.92-31.9 64.56Z"/></g><g filter="url(#c)"><path fill="#000073" d="M152.2 297.29 4 8.22c41.37-.67 84.51-1.29 94.91 2.57 41.59 9.77 77.16 135.52 80.6 149 6.54 25.71.6 93.95-27.3 137.5Z"/></g><defs><filter id="a" width="189.03" height="268.92" x="218.97" y="0" color-interpolation-filters="sRGB" filterUnits="userSpaceOnUse"><feFlood flood-opacity="0" result="BackgroundImageFix"/><feColorMatrix in="SourceAlpha" result="hardAlpha" values="0 0 0 0 0 0 0 0 0 0 0 0 0 0 0 0 0 0 127 0"/><feOffset dy="4"/><feGaussianBlur stdDeviation="2"/><feComposite in2="hardAlpha" operator="out"/><feColorMatrix values="0 0 0 0 0 0 0 0 0 0 0 0 0 0 0 0 0 0 0.25 0"/><feBlend in2="BackgroundImageFix" result="effect1_dropShadow_701_32"/><feBlend in="SourceGraphic" in2="effect1_dropShadow_701_32" result="shape"/></filter><filter id="b" width="185.33" height="413.18" x="75.3" y="44.82" color-interpolation-filters="sRGB" filterUnits="userSpaceOnUse"><feFlood flood-opacity="0" result="BackgroundImageFix"/><feColorMatrix in="SourceAlpha" result="hardAlpha" values="0 0 0 0 0 0 0 0 0 0 0 0 0 0 0 0 0 0 127 0"/><feOffset dy="4"/><feGaussianBlur stdDeviation="2"/><feComposite in2="hardAlpha" operator="out"/><feColorMatrix values="0 0 0 0 0 0 0 0 0 0 0 0 0 0 0 0 0 0 0.25 0"/><feBlend in2="BackgroundImageFix" result="effect1_dropShadow_701_32"/><feBlend in="SourceGraphic" in2="effect1_dropShadow_701_32" result="shape"/></filter><filter id="c" width="185.93" height="297.57" x="0" y="7.72" color-interpolation-filters="sRGB" filterUnits="userSpaceOnUse"><feFlood flood-opacity="0" result="BackgroundImageFix"/><feColorMatrix in="SourceAlpha" result="hardAlpha" values="0 0 0 0 0 0 0 0 0 0 0 0 0 0 0 0 0 0 127 0"/><feOffset dy="4"/><feGaussianBlur stdDeviation="2"/><feComposite in2="hardAlpha" operator="out"/><feColorMatrix values="0 0 0 0 0 0 0 0 0 0 0 0 0 0 0 0 0 0 0.25 0"/><feBlend in2="BackgroundImageFix" result="effect1_dropShadow_701_32"/><feBlend in="SourceGraphic" in2="effect1_dropShadow_701_32" result="shape"/></filter></defs></svg>